<svg width="0" height="0" style="position:absolute" aria-hidden="true">
<symbol id="envelope" viewBox="0 0 24 24" fill="none" stroke="currentColor" stroke-width="2" stroke-linecap="round"
      stroke-linejoin="round">
      <rect x="2" y="4" width="20" height="16" rx="2" />
      <path d="m22 7-8.97 5.7a1.94 1.94 0 0 1-2.06 0L2 7" />
    </symbol>
<symbol id="shield-key" viewBox="0 0 24 24" fill="none" stroke="currentColor" stroke-width="2"
      stroke-linecap="round" stroke-linejoin="round">
      <path d="M12 22s8-4 8-10V5l-8-3-8 3v7c0 6 8 10 8 10z" />
      <circle cx="12" cy="11" r="3" />
      <path d="m14 13-1.5-1.5" />
    </symbol>
<symbol id="shield-check" viewBox="0 0 24 24" fill="none" stroke="currentColor" stroke-width="2"
      stroke-linecap="round" stroke-linejoin="round">
      <path d="M12 22s8-4 8-10V5l-8-3-8 3v7c0 6 8 10 8 10z" />
      <path d="m9 12 2 2 4-5" />
    </symbol>
<symbol id="cube" viewBox="0 0 24 24" fill="none" stroke="currentColor" stroke-width="2" stroke-linecap="round"
      stroke-linejoin="round">
      <path
        d="M21 16V8a2 2 0 0 0-1-1.73l-7-4a2 2 0 0 0-2 0l-7 4A2 2 0 0 0 3 8v8a2 2 0 0 0 1 1.73l7 4a2 2 0 0 0 2 0l7-4A2 2 0 0 0 21 16z" />
      <polyline points="3.27 6.96 12 12.01 20.73 6.96" />
      <line x1="12" y1="22.08" x2="12" y2="12" />
    </symbol>
<symbol id="spark" viewBox="0 0 24 24" fill="none" stroke="currentColor" stroke-width="2" stroke-linecap="round"
      stroke-linejoin="round">
      <path d="M12 2 9 10 2 12l7 2 3 8 3-8 7-2-7-2-3-8Z" />
    </symbol>
<symbol id="rocket" viewBox="0 0 24 24" fill="none" stroke="currentColor" stroke-width="2" stroke-linecap="round"
      stroke-linejoin="round">
      <path d="M4.5 16.5c-1.5 1.5-2.5 3.5-2.5 5.5C4 22 6 21 7.5 19.5" />
      <path d="m12 12 4 4" />
      <path d="m16 8 4 4" />
      <path d="M13.5 6.5C15 5 18.5 3.5 21 2c-1.5 2.5-3 6-4.5 7.5" />
      <path d="m17 7-6.5 6.5c-1.2 1.2-2.5 1-3.5 0L6 12.5c-1-1-1.2-2.3 0-3.5L12.5 2.5" />
      <path d="M11.5 17.5c1.5.5 2.5 1.5 3 3" />
    </symbol>
<symbol id="github" viewBox="0 0 24 24" fill="currentColor">
      <path
        d="M12 .297c-6.63 0-12 5.373-12 12 0 5.303 3.438 9.8 8.205 11.385.6.113.82-.258.82-.577 0-.285-.01-1.04-.015-2.04-3.338.724-4.042-1.61-4.042-1.61C4.422 18.07 3.633 17.7 3.633 17.7c-1.087-.744.084-.729.084-.729 1.205.084 1.838 1.236 1.838 1.236 1.07 1.835 2.809 1.305 3.495.998.108-.776.417-1.305.76-1.605-2.665-.3-5.466-1.332-5.466-5.93 0-1.31.465-2.38 1.235-3.22-.135-.303-.54-1.523.105-3.176 0 0 1.005-.322 3.3 1.23.96-.267 1.98-.399 3-.405 1.02.006 2.04.138 3 .405 2.28-1.552 3.285-1.23 3.285-1.23.645 1.653.24 2.873.12 3.176.765.84 1.23 1.91 1.23 3.22 0 4.61-2.805 5.625-5.475 5.92.42.36.81 1.096.81 2.22 0 1.606-.015 2.896-.015 3.286 0 .315.21.69.825.57C20.565 22.092 24 17.592 24 12.297c0-6.627-5.373-12-12-12" />
    </symbol>
<symbol id="wechat" viewBox="0 0 24 24" fill="currentColor">
      <path
        d="M8.28 1.96C3.99 1.96.5 4.96.5 8.67c0 2.12 1.15 4.02 2.94 5.3-.22.68-.78 2.4-.78 2.4s1.78-1.04 2.8-1.64c.89.26 1.83.4 2.82.4 4.29 0 7.78-3 7.78-6.7S12.57 1.96 8.28 1.96zm4.99 4.35c.43 0 .78.35.78.78s-.35.78-.78.78-.78-.35-.78-.78.35-.78.78-.78zm-5 0c.43 0 .78.35.78.78s-.35.78-.78.78-.78-.35-.78-.78.35-.78.78-.78zm10.23 5.3c.09.28.14.56.14.85 0 3.15-3.03 5.71-6.77 5.71-.85 0-1.66-.13-2.42-.35-.87.52-2.39 1.4-2.39 1.4s.48-1.46.3-2.04c-1.53-1.09-2.5-2.7-2.5-4.5 0-.58.1-1.14.29-1.67 1.55 1.55 3.82 2.5 6.36 2.5 3.65 0 6.64-1.97 6.99-4.85zm-4.33-1.65c.34 0 .61.27.61.61s-.27.61-.61.61-.61-.27-.61-.61.27-.61.61-.61zm-4.04 0c.34 0 .61.27.61.61s-.27.61-.61.61-.61-.27-.61-.61.27-.61.61-.61z" />
    </symbol>
<symbol id="google" viewBox="0 0 24 24" fill="currentColor">
      <path
        d="M12.24 10.285V13.4h6.887c-.275 1.565-1.88 4.604-6.887 4.604-4.33 0-7.859-3.578-7.859-8s3.529-8 7.859-8c2.46 0 4.105 1.025 5.047 1.926l2.427-2.334C17.955.577 15.342 0 12.24 0 5.58 0 0 5.37 0 12s5.58 12 12.24 12c6.96 0 11.57-4.89 11.57-11.79 0-.79-.085-1.4-.19-1.925H12.24z" />
    </symbol>
<symbol id="lock" viewBox="0 0 24 24" fill="none" stroke="currentColor" stroke-width="2" stroke-linecap="round"
      stroke-linejoin="round">
      <rect x="3" y="11" width="18" height="11" rx="2" ry="2" />
      <path d="M7 11V7a5 5 0 0 1 10 0v4" />
    </symbol>
<symbol id="chevron-left" viewBox="0 0 24 24"><path d="m15 18-6-6 6-6"/></symbol>
<symbol id="chevron-right" viewBox="0 0 24 24"><path d="m9 18 6-6-6-6"/></symbol>
<symbol id="share" viewBox="0 0 24 24"><path d="M12 3v12"/><path d="m7 8 5-5 5 5"/><path d="M5 13v6h14v-6"/></symbol>
<symbol id="plus" viewBox="0 0 24 24"><path d="M12 5v14"/><path d="M5 12h14"/></symbol>
<symbol id="copy" viewBox="0 0 24 24"><rect x="8" y="8" width="12" height="12" rx="2"/><path d="M16 8V6a2 2 0 0 0-2-2H6a2 2 0 0 0-2 2v8a2 2 0 0 0 2 2h2"/></symbol>
<symbol id="sun" viewBox="0 0 24 24"><circle cx="12" cy="12" r="4"/><path d="M12 2v2M12 20v2M4.93 4.93l1.41 1.41M17.66 17.66l1.41 1.41M2 12h2M20 12h2M4.93 19.07l1.41-1.41M17.66 6.34l1.41-1.41"/></symbol>
<symbol id="message" viewBox="0 0 24 24"><path d="M21 15a4 4 0 0 1-4 4H8l-5 3V7a4 4 0 0 1 4-4h10a4 4 0 0 1 4 4z"/></symbol>
<symbol id="play" viewBox="0 0 24 24"><circle cx="12" cy="12" r="9"/><path d="m10 8 6 4-6 4z"/></symbol>
<symbol id="zap" viewBox="0 0 24 24"><path d="M13 2 3 14h8l-1 8 11-13h-8z"/></symbol>
<symbol id="shield" viewBox="0 0 24 24"><path d="M12 22s8-4 8-10V5l-8-3-8 3v7c0 6 8 10 8 10z"/><path d="m9 12 2 2 4-5"/></symbol>
<symbol id="search" viewBox="0 0 24 24"><circle cx="11" cy="11" r="7"/><path d="m20 20-3.5-3.5"/></symbol>
<symbol id="user" viewBox="0 0 24 24"><path d="M20 21a8 8 0 0 0-16 0"/><circle cx="12" cy="7" r="4"/></symbol>
<symbol id="eye" viewBox="0 0 24 24"><path d="M2 12s4-7 10-7 10 7 10 7-4 7-10 7S2 12 2 12z"/><circle cx="12" cy="12" r="3"/></symbol>
<symbol id="arrow-right" viewBox="0 0 24 24"><path d="M5 12h14"/><path d="m13 6 6 6-6 6"/></symbol>
<symbol id="chevron-down" viewBox="0 0 24 24"><path d="m6 9 6 6 6-6"/></symbol>
<symbol id="external-link" viewBox="0 0 24 24"><path d="M18 13v6a2 2 0 0 1-2 2H5a2 2 0 0 1-2-2V8a2 2 0 0 1 2-2h6"/><polyline points="15 3 21 3 21 9"/><line x1="10" y1="14" x2="21" y2="3"/></symbol>
<symbol id="cloud" viewBox="0 0 24 24"><path d="M17.5 19A5.5 5.5 0 0 0 18 8h-1.26a8 8 0 1 0-11.62 9"/><polyline points="12 12 12 21"/><polyline points="9 15 12 12 15 15"/></symbol>
<symbol id="file-code" viewBox="0 0 24 24"><path d="M14.5 2H6a2 2 0 0 0-2 2v16a2 2 0 0 0 2 2h12a2 2 0 0 0 2-2V7.5L14.5 2z"/><polyline points="14 2 14 8 20 8"/></symbol>
<symbol id="database" viewBox="0 0 24 24"><ellipse cx="12" cy="5" rx="9" ry="3"/><path d="M3 5v14c0 1.66 4 3 9 3s9-1.34 9-3V5"/><path d="M3 12c0 1.66 4 3 9 3s9-1.34 9-3"/></symbol>
<symbol id="link" viewBox="0 0 24 24"><path d="M10 13a5 5 0 0 0 7.54.54l3-3a5 5 0 0 0-7.07-7.07l-1.72 1.71"/><path d="M14 11a5 5 0 0 0-7.54-.54l-3 3a5 5 0 0 0 7.07 7.07l1.71-1.71"/></symbol>
<symbol id="feedback" viewBox="0 0 24 24"><path d="M21 15a2 2 0 0 1-2 2H7l-4 4V5a2 2 0 0 1 2-2h14a2 2 0 0 1 2 2z"/></symbol>
<symbol id="users" viewBox="0 0 24 24"><path d="M17 21v-2a4 4 0 0 0-4-4H5a4 4 0 0 0-4 4v2"/><circle cx="9" cy="7" r="4"/><path d="M23 21v-2a4 4 0 0 0-3-3.87"/><path d="M16 3.13a4 4 0 0 1 0 7.75"/></symbol>
<symbol id="send" viewBox="0 0 24 24"><line x1="22" y1="2" x2="11" y2="13"/><polygon points="22 2 15 22 11 13 2 9 22 2"/></symbol>
<symbol id="globe" viewBox="0 0 24 24"><circle cx="12" cy="12" r="10"/><line x1="2" y1="12" x2="22" y2="12"/><path d="M12 2a15.3 15.3 0 0 1 4 10 15.3 15.3 0 0 1-4 10 15.3 15.3 0 0 1-4-10 15.3 15.3 0 0 1 4-10z"/></symbol>
<symbol id="document" viewBox="0 0 24 24"><path d="M14 2H6a2 2 0 0 0-2 2v16a2 2 0 0 0 2 2h12a2 2 0 0 0 2-2V8z"/><polyline points="14 2 14 8 20 8"/></symbol>
<symbol id="info" viewBox="0 0 24 24"><circle cx="12" cy="12" r="10"/><path d="M12 16v-4"/><path d="M12 8h.01"/></symbol>
<symbol id="check" viewBox="0 0 24 24"><path d="M20 6L9 17l-5-5"/></symbol>
<symbol id="folder" viewBox="0 0 24 24"><path d="M22 19a2 2 0 0 1-2 2H4a2 2 0 0 1-2-2V5a2 2 0 0 1 2-2h5l2 3h9a2 2 0 0 1 2 2z"/></symbol>
<symbol id="star" viewBox="0 0 24 24"><polygon points="12 2 15.09 8.26 22 9.27 17 14.14 18.18 21.02 12 17.77 5.82 21.02 7 14.14 2 9.27 8.91 8.26 12 2"/></symbol>
<symbol id="file-text" viewBox="0 0 24 24"><path d="M14 2H6a2 2 0 0 0-2 2v16a2 2 0 0 0 2 2h12a2 2 0 0 0 2-2V8z"/><polyline points="14 2 14 8 20 8"/><line x1="16" y1="13" x2="8" y2="13"/><line x1="16" y1="17" x2="8" y2="17"/><polyline points="10 9 9 9 8 9"/></symbol>
<symbol id="settings" viewBox="0 0 24 24"><circle cx="12" cy="12" r="3"/><path d="M19.4 15a1.65 1.65 0 0 0 .33 1.82l.06.06a2 2 0 1 1-2.83 2.83l-.06-.06a1.65 1.65 0 0 0-1.82-.33 1.65 1.65 0 0 0-1 1.51V21a2 2 0 0 1-4 0v-.09A1.65 1.65 0 0 0 9 19.4a1.65 1.65 0 0 0-1.82.33l-.06.06a2 2 0 1 1-2.83-2.83l.06-.06a1.65 1.65 0 0 0 .33-1.82 1.65 1.65 0 0 0-1.51-1H3a2 2 0 0 1 0-4h.09A1.65 1.65 0 0 0 4.6 9a1.65 1.65 0 0 0-.33-1.82l-.06-.06a2 2 0 1 1 2.83-2.83l.06.06a1.65 1.65 0 0 0 1.82.33H9a1.65 1.65 0 0 0 1-1.51V3a2 2 0 0 1 4 0v.09a1.65 1.65 0 0 0 1 1.51 1.65 1.65 0 0 0 1.82-.33l.06-.06a2 2 0 1 1 2.83 2.83l-.06.06a1.65 1.65 0 0 0-.33 1.82V9a1.65 1.65 0 0 0 1.51 1H21a2 2 0 0 1 0 4h-.09a1.65 1.65 0 0 0-1.51 1z"/></symbol>
<symbol id="edit-3" viewBox="0 0 24 24"><path d="M12 20h9"/><path d="M16.5 3.5a2.121 2.121 0 0 1 3 3L7 19l-4 1 1-4L16.5 3.5z"/></symbol>
<symbol id="calendar" viewBox="0 0 24 24"><rect x="3" y="4" width="18" height="18" rx="2" ry="2"/><line x1="16" y1="2" x2="16" y2="6"/><line x1="8" y1="2" x2="8" y2="6"/><line x1="3" y1="10" x2="21" y2="10"/></symbol>
<symbol id="credit-card" viewBox="0 0 24 24"><rect x="1" y="4" width="22" height="16" rx="2" ry="2"/><line x1="1" y1="10" x2="23" y2="10"/></symbol>
<symbol id="check-circle" viewBox="0 0 24 24"><path d="M22 11.08V12a10 10 0 1 1-5.93-9.14"/><polyline points="22 4 12 14.01 9 11.01"/></symbol>
<symbol id="more-horizontal" viewBox="0 0 24 24"><circle cx="12" cy="12" r="1"/><circle cx="19" cy="12" r="1"/><circle cx="5" cy="12" r="1"/></symbol>
<symbol id="activity" viewBox="0 0 24 24"><polyline points="22 12 18 12 15 21 9 3 6 12 2 12"/></symbol>
<symbol id="bell" viewBox="0 0 24 24"><path d="M18 8A6 6 0 0 0 6 8c0 7-3 9-3 9h18s-3-2-3-9"/><path d="M13.73 21a2 2 0 0 1-3.46 0"/></symbol>
<symbol id="chrome" viewBox="0 0 24 24"><circle cx="12" cy="12" r="10"/><circle cx="12" cy="12" r="4"/><path d="M12 8h8.5M12 16l-7.3-4.2M5.4 8.2l7.3 4.2"/></symbol>
<symbol id="safari" viewBox="0 0 24 24"><circle cx="12" cy="12" r="10"/><polygon points="16.24 7.76 14.12 14.12 7.76 16.24 9.88 9.88 16.24 7.76"/></symbol>
<symbol id="headphones" viewBox="0 0 24 24"><path d="M3 18v-6a9 9 0 0 1 18 0v6"/><path d="M21 19a2 2 0 0 1-2 2h-1a2 2 0 0 1-2-2v-3a2 2 0 0 1 2-2h3M3 19a2 2 0 0 0 2 2h1a2 2 0 0 0 2-2v-3a2 2 0 0 0-2-2H3"/></symbol>
<symbol id="clock" viewBox="0 0 24 24"><circle cx="12" cy="12" r="10"/><path d="M12 6v6l4 2"/></symbol>
<symbol id="adjustments" viewBox="0 0 24 24"><line x1="4" y1="21" x2="4" y2="14"/><line x1="4" y1="10" x2="4" y2="3"/><line x1="12" y1="21" x2="12" y2="12"/><line x1="12" y1="8" x2="12" y2="3"/><line x1="20" y1="21" x2="20" y2="16"/><line x1="20" y1="12" x2="20" y2="3"/><line x1="1" y1="14" x2="7" y2="14"/><line x1="9" y1="8" x2="15" y2="8"/><line x1="17" y1="16" x2="23" y2="16"/></symbol>
<symbol id="sliders" viewBox="0 0 24 24"><line x1="4" y1="21" x2="4" y2="14"/><line x1="4" y1="10" x2="4" y2="3"/><line x1="12" y1="21" x2="12" y2="12"/><line x1="12" y1="8" x2="12" y2="3"/><line x1="20" y1="21" x2="20" y2="16"/><line x1="20" y1="12" x2="20" y2="3"/><circle cx="4" cy="12" r="2"/><circle cx="12" cy="10" r="2"/><circle cx="20" cy="14" r="2"/></symbol>
<symbol id="orbit" viewBox="0 0 24 24"><circle cx="12" cy="12" r="10"/><circle cx="12" cy="12" r="6"/><circle cx="12" cy="12" r="2"/></symbol>
<symbol id="edit" viewBox="0 0 24 24"><path d="M12 20h9"/><path d="M16.5 3.5a2.12 2.12 0 0 1 3 3L7 19l-4 1 1-4Z"/></symbol>
<symbol id="stop" viewBox="0 0 24 24"><rect x="3" y="3" width="18" height="18" rx="2"/></symbol>
<symbol id="more-v" viewBox="0 0 24 24"><circle cx="12" cy="12" r="1"/><circle cx="12" cy="5" r="1"/><circle cx="12" cy="19" r="1"/></symbol>
<symbol id="more-h" viewBox="0 0 24 24"><circle cx="12" cy="12" r="1"/><circle cx="5" cy="12" r="1"/><circle cx="19" cy="12" r="1"/></symbol>
<symbol id="crown" viewBox="0 0 24 24"><path d="M2 4 5 12h14l3-8-5 4-5-6-5 6Z"/></symbol>
<symbol id="folder-open" viewBox="0 0 24 24"><path d="M6 22h12a2 2 0 0 0 2-2V8H4v12a2 2 0 0 0 2 2zM2 4h4l2 3h14v10H2V4z"/></symbol>
<symbol id="file-image" viewBox="0 0 24 24"><rect x="3" y="3" width="18" height="18" rx="2" ry="2"/><circle cx="8.5" cy="8.5" r="1.5"/><polyline points="21 15 16 10 5 21"/></symbol>
<symbol id="paperclip" viewBox="0 0 24 24"><path d="m21.44 11.05-9.19 9.19a6 6 0 0 1-8.49-8.49l9.19-9.19a4 4 0 0 1 5.66 5.66l-9.2 9.19a2 2 0 0 1-2.83-2.83l8.49-8.48"/></symbol>
<symbol id="at" viewBox="0 0 24 24"><circle cx="12" cy="12" r="4"/><path d="M16 8v5a3 3 0 0 0 6 0v-1a10 10 0 1 0-3.92 7.94"/></symbol>
<symbol id="mic" viewBox="0 0 24 24"><path d="M12 2a3 3 0 0 0-3 3v7a3 3 0 0 0 6 0V5a3 3 0 0 0-3-3Z"/><path d="M19 10v2a7 7 0 0 1-14 0v-2"/><line x1="12" y1="19" x2="12" y2="22"/></symbol>
<symbol id="desktop" viewBox="0 0 24 24"><rect x="2" y="3" width="20" height="14" rx="2"/><line x1="8" y1="21" x2="16" y2="21"/><line x1="12" y1="17" x2="12" y2="21"/></symbol>
<symbol id="mobile" viewBox="0 0 24 24"><rect x="5" y="2" width="14" height="20" rx="2"/><line x1="12" y1="18" x2="12" y2="18"/></symbol>
<symbol id="refresh" viewBox="0 0 24 24"><path d="M21.5 2v6h-6M21.34 15.57a10 10 0 1 1-.57-8.38l5.67-5.67"/></symbol>
</svg>
